<?xml version="1.0" encoding="UTF-8"?>
<!-- Generator: Adobe Illustrator 27.3.1, SVG Export Plug-In . SVG Version: 6.00 Build 0)  -->
<svg xmlns="http://www.w3.org/2000/svg" xmlns:xlink="http://www.w3.org/1999/xlink" version="1.1" id="Layer_1" x="0px" y="0px" viewBox="0 0 580 130" style="enable-background:new 0 0 580 130;" xml:space="preserve">
<style type="text/css">
	.st0{fill:url(#SVGID_1_);}
	.st1{fill:url(#SVGID_00000114056227275068245420000004825512675571297468_);}
	.st2{fill:url(#SVGID_00000053506756856705804980000006746498953292818592_);}
	.st3{fill:url(#SVGID_00000050623008918751859340000011367900633616841358_);}
	.st4{fill:url(#SVGID_00000133523032653885325960000017300685073915248821_);}
</style>
<g>
	<linearGradient id="SVGID_1_" gradientUnits="userSpaceOnUse" x1="63.073" y1="46.6216" x2="45.2611" y2="77.4728">
		<stop offset="0" style="stop-color:#44C8F5"></stop>
		<stop offset="0.0493" style="stop-color:#43BAEB"></stop>
		<stop offset="0.1233" style="stop-color:#40AEE3"></stop>
		<stop offset="0.1996" style="stop-color:#3FA7DE"></stop>
		<stop offset="0.2809" style="stop-color:#3FA4DC"></stop>
		<stop offset="0.6685" style="stop-color:#1C75BC"></stop>
		<stop offset="1" style="stop-color:#1C75BC"></stop>
	</linearGradient>
	<path class="st0" d="M58,45.12l-15.33,8.85c-0.77,0.44-1.24,1.26-1.24,2.15v17.7c0,0.89,0.47,1.71,1.24,2.15l12.85,7.42   c1.65,0.95,3.72-0.24,3.72-2.15l0-14.91c0-0.89,0.48-1.71,1.25-2.15l12.82-7.35c1.66-0.95,1.66-3.34,0.01-4.3l-12.84-7.41   C59.71,44.68,58.77,44.68,58,45.12z"></path>
	
		<linearGradient id="SVGID_00000042007601074731024260000008104930422122306968_" gradientUnits="userSpaceOnUse" x1="93.3228" y1="17.6347" x2="9.4312" y2="101.5262">
		<stop offset="5.540901e-07" style="stop-color:#00AEEF"></stop>
		<stop offset="0.0377" style="stop-color:#00AAE9"></stop>
		<stop offset="0.0957" style="stop-color:#00A8E4"></stop>
		<stop offset="0.155" style="stop-color:#00A6E0"></stop>
		<stop offset="0.216" style="stop-color:#36A5DD"></stop>
		<stop offset="0.2809" style="stop-color:#3FA4DC"></stop>
		<stop offset="0.6685" style="stop-color:#1C75BC"></stop>
		<stop offset="1" style="stop-color:#1C75BC"></stop>
	</linearGradient>
	<path style="fill:url(#SVGID_00000042007601074731024260000008104930422122306968_);" d="M58.03,108.75l0,14.77   c0,1.91-2.07,3.1-3.72,2.15L5.5,97.48c-0.77-0.44-1.24-1.26-1.24-2.15l0-59.22c0-0.89,0.47-1.7,1.24-2.15L56.8,4.33   c0.77-0.44,1.71-0.44,2.48,0l48.79,28.17c1.66,0.96,1.65,3.36-0.02,4.31l-12.63,7.16c-0.76,0.43-1.7,0.43-2.46-0.01L59.27,24.54   c-0.77-0.44-1.71-0.44-2.48,0L23.15,43.91c-0.77,0.44-1.24,1.26-1.24,2.15l0,38.9c0,0.88,0.47,1.7,1.24,2.15l33.65,19.49   C57.56,107.04,58.03,107.86,58.03,108.75z"></path>
	
		<linearGradient id="SVGID_00000164509711715180551220000016560112392739814035_" gradientUnits="userSpaceOnUse" x1="66.4826" y1="102.241" x2="77.4356" y2="117.8836">
		<stop offset="8.311352e-07" style="stop-color:#D1D3D4"></stop>
		<stop offset="0.5149" style="stop-color:#D0D1D3"></stop>
		<stop offset="0.7003" style="stop-color:#CACCCD"></stop>
		<stop offset="0.8325" style="stop-color:#C0C2C4"></stop>
		<stop offset="0.9387" style="stop-color:#B2B4B7"></stop>
		<stop offset="1" style="stop-color:#A7A9AC"></stop>
	</linearGradient>
	<path style="fill:url(#SVGID_00000164509711715180551220000016560112392739814035_);" d="M90.52,108.72l-27.75,16.85   c-1.61,0.97-3.63-0.22-3.63-2.14l0-14.73c0-0.88,0.46-1.7,1.2-2.15l15.05-8.99c0.72-0.43,1.6-0.45,2.33-0.05l12.7,6.87   C92.09,105.29,92.14,107.73,90.52,108.72z"></path>
	
		<linearGradient id="SVGID_00000143617735039589217020000014290754343509694619_" gradientUnits="userSpaceOnUse" x1="88.167" y1="50.2549" x2="117.7887" y2="92.5591">
		<stop offset="8.311352e-07" style="stop-color:#D1D3D4"></stop>
		<stop offset="0.5149" style="stop-color:#D0D1D3"></stop>
		<stop offset="0.7003" style="stop-color:#CACCCD"></stop>
		<stop offset="0.8325" style="stop-color:#C0C2C4"></stop>
		<stop offset="0.9387" style="stop-color:#B2B4B7"></stop>
		<stop offset="1" style="stop-color:#A7A9AC"></stop>
	</linearGradient>
	<path style="fill:url(#SVGID_00000143617735039589217020000014290754343509694619_);" d="M110.59,97.59l-12.67,7.22   c-1.65,0.94-3.72-0.24-3.72-2.12V47.3c0-0.88,0.48-1.7,1.26-2.13l12.67-7.09c1.65-0.93,3.7,0.25,3.7,2.13v55.26   C111.83,96.34,111.35,97.15,110.59,97.59z"></path>
	
		<linearGradient id="SVGID_00000144320969677375885440000013890698720224627641_" gradientUnits="userSpaceOnUse" x1="78.0601" y1="67.7623" x2="63.9893" y2="59.6386">
		<stop offset="5.327789e-09" style="stop-color:#D1D3D4"></stop>
		<stop offset="0.1267" style="stop-color:#CDCFD1"></stop>
		<stop offset="0.2667" style="stop-color:#C2C4C6"></stop>
		<stop offset="0.413" style="stop-color:#B0B2B4"></stop>
		<stop offset="0.5638" style="stop-color:#989A9C"></stop>
		<stop offset="0.7179" style="stop-color:#7A7C7E"></stop>
		<stop offset="0.8726" style="stop-color:#535456"></stop>
		<stop offset="1" style="stop-color:#000000"></stop>
	</linearGradient>
	<path style="fill:url(#SVGID_00000144320969677375885440000013890698720224627641_);" d="M75.15,55.83   c-0.07,0.76-0.47,1.5-1.23,1.94l-12.82,7.35c-0.77,0.44-0.94,1.26-0.94,2.15l0.31,0.2l10.98,6.76c1.65,0.96,3.73-0.23,3.73-2.14   l0-16.27L75.15,55.83z"></path>
</g>
<g>
	<g>
		<path d="M156.44,83.58c-2.29,0-4.26-0.82-5.9-2.47c-1.65-1.65-2.47-3.61-2.47-5.9V48.59c0-2.29,0.82-4.25,2.47-5.9    c1.65-1.65,3.61-2.47,5.9-2.47H183c2.33,0,4.32,0.82,5.96,2.47c1.65,1.65,2.47,3.61,2.47,5.9v26.98h5.18v8.01H156.44z     M158.13,75.57h23.19c1.08,0,1.71-0.07,1.87-0.21c0.16-0.14,0.24-0.77,0.24-1.9V50.33c0-1.12-0.08-1.76-0.24-1.9    c-0.16-0.14-0.78-0.21-1.87-0.21h-23.19c-1.12,0-1.76,0.07-1.9,0.21c-0.14,0.14-0.21,0.77-0.21,1.9v23.13    c0,1.12,0.07,1.76,0.21,1.9C156.37,75.5,157.01,75.57,158.13,75.57z"></path>
		<path d="M209.68,83.58c-2.29,0-4.26-0.82-5.9-2.47c-1.65-1.65-2.47-3.61-2.47-5.9V40.22h7.95v33.25c0,1.12,0.07,1.76,0.21,1.9    c0.14,0.14,0.77,0.21,1.9,0.21h23.19c1.08,0,1.71-0.07,1.87-0.21c0.16-0.14,0.24-0.77,0.24-1.9V40.22h8.01v34.99    c0,2.29-0.82,4.26-2.47,5.9c-1.65,1.65-3.61,2.47-5.9,2.47H209.68z"></path>
		<path d="M251.42,83.58V48.59c0-2.29,0.82-4.25,2.47-5.9c1.65-1.65,3.61-2.47,5.9-2.47h26.56c2.33,0,4.32,0.82,5.96,2.47    c1.65,1.65,2.47,3.61,2.47,5.9v34.99h-8.01V69h-27.4v14.58H251.42z M259.37,61.05h27.4V50.33c0-1.12-0.08-1.76-0.24-1.9    c-0.16-0.14-0.78-0.21-1.87-0.21h-23.19c-1.12,0-1.76,0.07-1.9,0.21c-0.14,0.14-0.21,0.77-0.21,1.9V61.05z"></path>
		<path d="M301.65,83.58V40.22h8.73L337,71.9V40.22h8.01v43.36h-8.73L309.6,51.84v31.74H301.65z"></path>
		<path d="M367.3,83.58V48.23h-17.71v-8.01h43.36v8.01h-17.65v35.35H367.3z"></path>
		<path d="M397.23,83.58V40.22h7.89v43.36H397.23z"></path>
		<path d="M410.36,83.58V40.22h8.73l26.62,31.68V40.22h8.01v43.36h-8.73l-26.68-31.74v31.74H410.36z"></path>
		<path d="M460.22,83.58V40.22h7.89v43.36H460.22z"></path>
		<path d="M481.61,83.58c-2.29,0-4.26-0.82-5.9-2.47c-1.65-1.65-2.47-3.61-2.47-5.9V40.22h7.95v33.25c0,1.12,0.07,1.76,0.21,1.9    c0.14,0.14,0.77,0.21,1.9,0.21h23.19c1.08,0,1.71-0.07,1.87-0.21c0.16-0.14,0.24-0.77,0.24-1.9V40.22h8.01v34.99    c0,2.29-0.82,4.26-2.47,5.9c-1.65,1.65-3.61,2.47-5.9,2.47H481.61z"></path>
		<path d="M523.22,83.58V40.22h8.73l15.72,18.73l15.66-18.73h8.79v43.36h-8.01v-31.8l-16.44,19.57l-16.5-19.51v31.74H523.22z"></path>
	</g>
</g>
</svg>
